<svg width="960" height="960" viewBox="0 0 960 960" fill="none" xmlns="http://www.w3.org/2000/svg">
<g clip-path="url(#clip0_283_1349)">
<path fill-rule="evenodd" clip-rule="evenodd" d="M535.712 380.561C564.626 426.005 535.157 496.509 469.891 538.035C404.624 579.561 328.276 576.384 299.362 530.94C270.448 485.496 299.917 414.993 365.183 373.466C430.45 331.94 506.798 335.117 535.712 380.561ZM465.568 443.904C467.372 440.908 469.099 437.898 470.706 434.867C472.847 430.968 474.756 426.946 476.426 422.822C477.427 420.305 478.183 417.697 478.684 415.035C479.662 409.886 478.828 404.557 476.322 399.954C474.38 396.438 471.526 393.511 468.062 391.479C464.082 389.105 459.673 387.542 455.087 386.879C450.254 386.078 445.331 385.971 440.468 386.561C430.693 387.749 421.356 391.305 413.268 396.92C408.729 399.997 404.696 403.761 401.313 408.076C399.022 411.039 396.958 414.171 395.139 417.444C392.315 422.451 389.849 427.501 387.604 432.574C387.189 433.511 386.752 434.449 386.276 435.379C386.083 435.815 385.747 436.172 385.325 436.391C384.902 436.611 384.417 436.68 383.95 436.588C383.779 436.558 383.611 436.511 383.45 436.447C382.794 436.229 382.169 435.926 381.592 435.547C381.155 435.285 380.722 435.021 380.288 434.757C379.49 434.271 378.692 433.785 377.879 433.315C376.634 432.563 375.308 431.953 373.928 431.495C372.598 431.074 371.181 431.005 369.817 431.295C368.417 431.577 367.131 432.262 366.117 433.267C365.425 433.832 364.874 434.55 364.507 435.365C364.141 436.179 363.969 437.068 364.005 437.96C364.088 438.704 364.311 439.425 364.663 440.085C365.14 440.974 365.729 441.797 366.417 442.534C367.041 443.226 367.668 443.919 368.295 444.611C369.027 445.419 369.758 446.226 370.486 447.034C371.55 448.22 372.607 449.412 373.557 450.683C373.896 451.116 374.174 451.593 374.384 452.101C374.553 452.573 374.61 453.078 374.551 453.576C374.491 454.074 374.317 454.551 374.042 454.97C373.41 456.064 372.674 457.094 371.842 458.044C369.114 461.179 366.086 464.039 362.8 466.582C356.609 471.414 349.825 475.433 342.614 478.542C337.663 480.703 332.559 482.494 327.345 483.902C326.605 484.076 325.879 484.307 325.175 484.592C323.707 485.236 323.2 486.056 323.649 487.092C323.773 487.371 323.937 487.63 324.137 487.861C324.437 488.212 324.76 488.542 325.104 488.85C326.292 489.895 327.585 490.813 328.963 491.589C330.181 492.285 331.495 492.87 332.808 493.455C333.218 493.638 333.628 493.821 334.036 494.007C335.005 494.447 335.929 494.98 336.795 495.599C338.184 496.598 338.432 498.042 337.765 499.882C337.743 499.941 337.719 500 337.695 500.059C337.662 500.139 337.629 500.219 337.603 500.299C337.539 500.492 337.475 500.684 337.411 500.876C337.243 501.379 337.075 501.881 336.924 502.382C336.818 502.62 336.764 502.878 336.764 503.139C336.764 503.399 336.819 503.657 336.925 503.895C337.03 504.133 337.185 504.347 337.378 504.522C337.571 504.696 337.799 504.829 338.047 504.91C338.844 505.244 339.676 505.488 340.528 505.637C342.072 505.932 343.63 506.202 345.191 506.465C348.082 506.937 350.921 507.688 353.668 508.706C356.472 509.684 359.04 511.241 361.204 513.275C362.06 514.118 362.909 514.967 363.751 515.823C364.885 517.006 366.081 518.129 367.333 519.187C370.227 521.54 373.616 523.208 377.246 524.067C379.929 524.731 382.673 525.118 385.435 525.224C388.974 525.366 392.517 525.078 395.987 524.368C399.304 523.642 402.571 522.699 405.766 521.546L406.182 521.403C408.093 520.747 410.003 520.09 411.915 519.469C413.804 518.85 415.739 518.382 417.703 518.069C422.032 517.405 426.423 517.243 430.79 517.587C431.737 517.657 432.677 517.74 433.618 517.824C434.522 517.904 435.426 517.984 436.336 518.052C437.092 518.111 437.851 518.129 438.609 518.106C439.556 518.143 440.496 517.919 441.324 517.458C442.153 516.997 442.84 516.318 443.309 515.494C443.551 515.158 443.785 514.82 444.02 514.481C444.316 514.052 444.612 513.624 444.926 513.201C445.914 511.834 447.335 510.84 448.959 510.38C449.944 510.077 450.95 509.848 451.97 509.696C453.398 509.504 454.824 509.327 456.248 509.166C459.667 508.804 463.045 508.123 466.338 507.132C467.117 506.908 467.879 506.629 468.619 506.298C469.138 506.072 469.624 505.776 470.064 505.418C470.285 505.27 470.46 505.063 470.569 504.82C470.677 504.577 470.715 504.309 470.678 504.045C470.62 503.74 470.47 503.461 470.247 503.245C469.958 502.963 469.656 502.696 469.34 502.445C465.794 499.723 462.71 496.448 460.205 492.745C457.25 488.355 455.421 483.305 454.881 478.04C454.546 474.942 454.697 471.81 455.329 468.758C455.547 467.721 455.876 466.71 456.312 465.743C456.83 464.637 457.681 463.719 458.745 463.118C459.303 462.782 459.882 462.482 460.478 462.218C461.545 461.75 462.62 461.306 463.699 460.894C465.455 460.224 467.211 459.565 468.967 458.907C469.811 458.59 470.655 458.274 471.499 457.956C471.883 457.811 472.268 457.667 472.652 457.522C473.829 457.08 475.005 456.638 476.18 456.186C477.518 455.677 478.81 455.052 480.041 454.32C480.904 453.816 481.703 453.209 482.419 452.511C485.095 449.83 485.009 446.662 482.237 445.575C480.896 445.138 479.474 445.011 478.077 445.201C475.787 445.438 473.511 445.798 471.261 446.281C469.898 446.547 468.536 446.809 467.177 447.047C466.712 447.135 466.24 447.174 465.768 447.164C464.541 447.114 464.102 446.568 464.702 445.446C464.978 444.93 465.261 444.414 465.568 443.904Z" fill="#171717"/>
<path d="M718.492 260.334C721.225 253.48 723.768 246.974 726.121 240.817C728.49 234.654 735.321 221.807 730.845 212.796C733.863 218.07 746.358 240.182 748.684 247.459C751.336 255.751 746.696 269.359 746.696 269.359C746.696 269.359 492.596 817.647 473.779 849.208C455.587 879.7 422 867.4 416.863 866.215C328.02 845.64 118.238 799.428 92.6848 793.124C67.4698 786.905 67.2998 776.159 67.2998 775.877L61.8848 746.813C63.9998 752.947 69.7538 758.518 81.7398 762.438C118.24 774.382 402.266 839.421 402.266 839.421C402.266 839.421 445.404 853.354 464.654 820.835C469.646 812.387 485.68 779.671 507.707 733.162C567.149 607.71 670.263 381.809 718.492 260.334Z" fill="#171717"/>
<path d="M730.845 212.8C735.316 221.811 728.49 234.658 726.121 240.821C723.766 246.969 721.223 253.475 718.492 260.338L326.342 211.658H326.328C330.528 204.028 333.773 198.374 335.903 195.031C360.455 156.547 411.56 167.166 411.56 167.166L706.872 203C720.283 203.3 727.122 206.793 730.197 211.659C730.211 211.687 730.239 211.715 730.239 211.743C730.323 211.879 730.535 212.246 730.845 212.8ZM585.185 217.4C585.383 215.93 584.989 214.442 584.089 213.263C583.19 212.084 581.86 211.31 580.39 211.111L526.619 203.876C526.371 203.844 526.122 203.825 525.872 203.82C524.445 203.81 523.067 204.345 522.021 205.316C520.975 206.287 520.34 207.621 520.244 209.045C520.149 210.469 520.6 211.876 521.508 212.979C522.415 214.081 523.708 214.795 525.124 214.975L578.9 222.2C579.148 222.232 579.397 222.251 579.647 222.256C581.002 222.253 582.31 221.758 583.329 220.864C584.347 219.97 585.007 218.737 585.185 217.393V217.4ZM499.4 204.532C499.659 202.605 499.341 200.645 498.486 198.899C497.631 197.152 496.277 195.699 494.596 194.722C492.915 193.745 490.982 193.289 489.042 193.41C487.101 193.532 485.24 194.226 483.695 195.405C482.149 196.585 480.987 198.196 480.357 200.035C479.726 201.874 479.656 203.859 480.153 205.739C480.651 207.618 481.695 209.308 483.153 210.594C484.611 211.88 486.417 212.706 488.344 212.965C489.624 213.138 490.925 213.056 492.173 212.726C493.421 212.395 494.592 211.822 495.619 211.039C496.646 210.256 497.508 209.278 498.157 208.162C498.806 207.045 499.228 205.812 499.4 204.532Z" fill="url(#paint0_linear_283_1349)"/>
<path d="M730.239 211.738C730.239 211.71 730.211 211.682 730.197 211.654L730.239 211.738Z" fill="#171717"/>
<path d="M580.389 211.1C581.803 211.282 583.095 211.997 584 213.098C584.905 214.2 585.356 215.605 585.261 217.028C585.166 218.451 584.531 219.783 583.487 220.754C582.443 221.726 581.068 222.262 579.642 222.254C579.392 222.249 579.143 222.23 578.895 222.198L525.123 214.964C523.707 214.783 522.414 214.069 521.507 212.967C520.599 211.865 520.148 210.458 520.243 209.034C520.339 207.61 520.974 206.276 522.02 205.305C523.066 204.333 524.444 203.798 525.871 203.809C526.121 203.814 526.37 203.833 526.618 203.865L580.389 211.1Z" fill="#171717"/>
<path d="M61.8856 746.813C57.5856 734.262 68.5136 719.356 72.5326 711.332C80.9936 694.41 91.2176 673.976 102.655 651.116L507.708 733.162C485.681 779.671 469.647 812.387 464.655 820.835C445.405 853.354 402.267 839.421 402.267 839.421C402.267 839.421 118.238 774.382 81.7406 762.438C69.7546 758.518 63.9996 752.947 61.8856 746.813ZM303.68 756.882C309.969 738.775 301.226 719.282 284.134 713.349C267.042 707.416 248.103 717.269 241.8 735.376C235.497 753.483 244.268 772.958 261.345 778.909C278.422 784.86 297.39 774.975 303.68 756.882Z" fill="url(#paint1_linear_283_1349)"/>
<path d="M490.969 193.49C492.894 193.751 494.699 194.576 496.155 195.862C497.611 197.148 498.653 198.837 499.15 200.715C499.646 202.593 499.575 204.576 498.945 206.413C498.315 208.251 497.154 209.86 495.61 211.039C494.065 212.217 492.206 212.91 490.267 213.032C488.329 213.154 486.397 212.698 484.717 211.723C483.037 210.747 481.684 209.296 480.829 207.552C479.974 205.807 479.655 203.849 479.913 201.923C480.085 200.644 480.508 199.41 481.156 198.294C481.805 197.177 482.667 196.2 483.694 195.417C484.721 194.634 485.892 194.06 487.14 193.73C488.388 193.399 489.689 193.318 490.969 193.49V193.49Z" fill="#171717"/>
<path d="M284.134 713.349C301.226 719.286 309.969 738.775 303.68 756.882C297.391 774.989 278.437 784.846 261.345 778.909C244.253 772.972 235.51 753.469 241.8 735.376C248.09 717.283 267.043 707.412 284.134 713.349Z" fill="url(#paint2_linear_283_1349)"/>
<path d="M730.239 211.738C730.239 211.71 730.211 211.682 730.197 211.654C727.122 206.788 720.283 203.291 706.872 202.995L411.56 167.162C411.56 167.162 360.455 156.543 335.903 195.027C333.773 198.37 330.53 204.027 326.328 211.654C288.365 280.654 172.672 511.181 102.655 651.116C91.2179 673.976 80.9939 694.41 72.5329 711.332C68.5139 719.356 57.5849 734.262 61.8859 746.813C64.0009 752.947 69.7549 758.518 81.7409 762.438C118.241 774.382 402.267 839.421 402.267 839.421C402.267 839.421 445.405 853.354 464.655 820.835C469.647 812.387 485.681 779.671 507.708 733.162C567.149 607.71 670.263 381.809 718.492 260.334C721.225 253.48 723.768 246.975 726.121 240.817C728.49 234.654 735.321 221.807 730.845 212.796" stroke="#171717" stroke-width="4.231" stroke-linecap="round" stroke-linejoin="round"/>
<path d="M61.8711 746.728L61.8851 746.813L67.2991 775.877C67.2991 776.159 67.4681 786.905 92.6831 793.124C118.236 799.424 328.018 845.64 416.861 866.215C421.999 867.4 455.586 879.7 473.778 849.208C492.59 817.647 746.699 269.359 746.699 269.359C746.699 269.359 751.339 255.751 748.687 247.459C746.361 240.182 733.866 218.07 730.848 212.796C730.538 212.246 730.326 211.879 730.242 211.738L730.2 211.654" stroke="#171717" stroke-width="4.231" stroke-linecap="round" stroke-linejoin="round"/>
<path d="M102.641 651.116H102.655L507.708 733.162H507.722" stroke="#171717" stroke-width="4.231" stroke-linecap="round" stroke-linejoin="round"/>
<path d="M326.342 211.654L718.492 260.334H718.506" stroke="#171717" stroke-width="4.231" stroke-linecap="round" stroke-linejoin="round"/>
<path d="M303.68 756.882C297.39 774.975 278.437 784.846 261.345 778.909C244.253 772.972 235.51 753.469 241.8 735.376C248.09 717.283 267.043 707.412 284.134 713.349C301.225 719.286 309.969 738.775 303.68 756.882Z" stroke="#171717" stroke-width="4.231" stroke-linecap="round" stroke-linejoin="round"/>
<path d="M499.4 204.532C499.143 206.46 498.32 208.268 497.035 209.729C495.75 211.189 494.061 212.235 492.181 212.734C490.302 213.234 488.316 213.165 486.476 212.536C484.635 211.907 483.023 210.746 481.842 209.2C480.662 207.655 479.966 205.793 479.844 203.852C479.721 201.911 480.177 199.978 481.154 198.296C482.131 196.614 483.585 195.26 485.332 194.404C487.078 193.549 489.04 193.231 490.967 193.49C493.549 193.838 495.887 195.196 497.468 197.266C499.049 199.337 499.744 201.95 499.4 204.532V204.532Z" stroke="#171717" stroke-width="4.231" stroke-linecap="round" stroke-linejoin="round"/>
<path d="M578.899 222.2L525.127 214.966C523.711 214.785 522.417 214.071 521.51 212.969C520.603 211.867 520.151 210.46 520.247 209.036C520.342 207.612 520.978 206.278 522.024 205.307C523.07 204.335 524.448 203.8 525.875 203.811C526.125 203.816 526.374 203.835 526.622 203.867L580.389 211.1C581.803 211.282 583.095 211.997 584 213.098C584.905 214.2 585.356 215.605 585.261 217.028C585.166 218.451 584.531 219.783 583.487 220.754C582.443 221.725 581.068 222.262 579.642 222.254C579.394 222.249 579.146 222.231 578.899 222.2V222.2Z" stroke="#171717" stroke-width="4.231" stroke-linecap="round" stroke-linejoin="round"/>
<path d="M71.7924 821.805C67.338 821.84 62.9291 820.908 58.8703 819.072C54.8115 817.237 51.1997 814.542 48.2846 811.174C45.3694 807.805 43.2204 803.844 41.986 799.564C40.7517 795.284 40.4615 790.787 41.1354 786.384" stroke="#171717" stroke-width="4.231" stroke-linecap="round" stroke-linejoin="round"/>
<path d="M443.078 899.168C457.11 900.519 471.189 897.123 483.062 889.525C494.936 881.927 503.917 870.566 508.569 857.259" stroke="#171717" stroke-width="4.231" stroke-linecap="round" stroke-linejoin="round"/>
<path d="M178.382 369.391C162.33 374.216 151.523 389.877 147.312 406.1C143.101 422.323 144.242 439.374 144.519 456.132C144.796 472.89 144.025 490.289 136.472 505.251C133.093 511.944 128.204 518.151 121.523 521.551C114.842 524.951 106.176 525.051 100.231 520.485C94.2859 515.919 92.3989 506.309 97.2559 500.598C103.401 493.372 116.667 496.691 120.801 505.228C124.935 513.765 121.401 524.472 114.72 531.201C108.039 537.93 98.8429 541.468 89.8009 544.346C80.7589 547.224 71.4199 549.7 63.4899 554.908C55.5599 560.116 49.1349 568.752 49.4679 578.231C50.0849 595.816 72.6239 608.659 68.9819 625.873C66.5079 637.564 49.6659 643.032 40.7969 635.024" stroke="#171717" stroke-width="4.231" stroke-linecap="round" stroke-linejoin="round"/>
<path d="M770.039 471.414C753.139 493.184 740.076 517.676 731.411 543.837C728.093 553.87 725.411 564.337 726.077 574.886C726.743 585.435 731.204 596.164 739.794 602.319C748.384 608.474 761.385 608.795 768.994 601.459C776.603 594.123 775.7 579.312 766.337 574.413C756.596 569.313 744.11 576.968 740.009 587.169C735.908 597.37 737.743 608.869 739.595 619.705C742.762 638.245 745.804 657.168 743.062 675.775C740.32 694.382 730.842 712.948 714.391 722.066C708.411 725.381 701.373 727.359 694.691 725.893C688.009 724.427 681.983 718.874 681.471 712.056" stroke="#171717" stroke-width="4.231" stroke-linecap="round" stroke-linejoin="round"/>
<path d="M695.925 666.208L687.961 647.295" stroke="#171717" stroke-width="4.231" stroke-linecap="round" stroke-linejoin="round"/>
<path d="M678.031 663.291L703.02 653.601" stroke="#171717" stroke-width="4.231" stroke-linecap="round" stroke-linejoin="round"/>
<path d="M807.272 549.782L801.338 528.867" stroke="#171717" stroke-width="4.231" stroke-linecap="round" stroke-linejoin="round"/>
<path d="M791.318 546.31L821.418 535.01" stroke="#171717" stroke-width="4.231" stroke-linecap="round" stroke-linejoin="round"/>
<path d="M376.242 126.934C354.98 119.741 330.348 124.821 312.742 138.741C295.136 152.661 284.626 174.713 283.419 197.126C282.936 206.094 283.844 215.09 283.447 224.062C283.05 233.034 281.203 242.274 275.876 249.505C270.549 256.736 261.114 261.454 252.425 259.185C243.736 256.916 237.625 246.263 241.741 238.285C244.469 232.998 251.989 230.263 256.787 233.78C261.585 237.297 259.918 246.733 253.998 247.326" stroke="#171717" stroke-width="4.231" stroke-linecap="round" stroke-linejoin="round"/>
<path d="M276.447 142.607L273.461 123.68" stroke="#171717" stroke-width="4.93" stroke-linecap="round" stroke-linejoin="round"/>
<path d="M265.656 135.226L286.49 126.795" stroke="#171717" stroke-width="4.93" stroke-linecap="round" stroke-linejoin="round"/>
<path d="M212.321 212.085L201.314 202.195" stroke="#171717" stroke-width="4.231" stroke-linecap="round" stroke-linejoin="round"/>
<path d="M199.236 216.288C202.499 209.637 207.216 203.804 213.036 199.222" stroke="#171717" stroke-width="4.231" stroke-linecap="round" stroke-linejoin="round"/>
<path d="M399.283 78.8997L397.439 61.0947L398.287 63.9677" stroke="#171717" stroke-width="4.231" stroke-linecap="round" stroke-linejoin="round"/>
<path d="M729.935 138.614L728.979 123.68" stroke="#171717" stroke-width="4.231" stroke-linecap="round" stroke-linejoin="round"/>
<path d="M720.789 132.5L736.701 130.4" stroke="#171717" stroke-width="4.231" stroke-linecap="round" stroke-linejoin="round"/>
<path d="M759.141 184.662C765.418 171.831 772.227 159.278 779.567 147.005" stroke="#171717" stroke-width="4.231" stroke-linecap="round" stroke-linejoin="round"/>
<path d="M789.477 238.123L920.8 186.16" stroke="#171717" stroke-width="4.231" stroke-linecap="round" stroke-linejoin="round"/>
<path d="M778.6 304.74C792.616 310.611 805.942 318.009 818.338 326.8" stroke="#171717" stroke-width="4.231" stroke-linecap="round" stroke-linejoin="round"/>
<path d="M647.055 327.422L641.109 312.557" stroke="#171717" stroke-width="4.212" stroke-linecap="round" stroke-linejoin="round"/>
<path d="M536.289 306.568L551.125 299.079" stroke="#171717" stroke-width="4.212" stroke-linecap="round" stroke-linejoin="round"/>
<path d="M584.624 389.111L579.424 376.476" stroke="#171717" stroke-width="4.212" stroke-linecap="round" stroke-linejoin="round"/>
<path d="M461.988 310.328L453.812 293.976" stroke="#171717" stroke-width="4.212" stroke-linecap="round" stroke-linejoin="round"/>
<path d="M358.551 313.041L372.59 306.182" stroke="#171717" stroke-width="4.212" stroke-linecap="round" stroke-linejoin="round"/>
<path d="M354.218 262.76L349.018 247.152" stroke="#171717" stroke-width="4.212" stroke-linecap="round" stroke-linejoin="round"/>
<path d="M297.318 368.892L289.818 352.57" stroke="#171717" stroke-width="4.212" stroke-linecap="round" stroke-linejoin="round"/>
<path d="M240.424 438.768L252.958 431.893" stroke="#171717" stroke-width="4.212" stroke-linecap="round" stroke-linejoin="round"/>
<path d="M221.407 538.4L213.018 519.168" stroke="#171717" stroke-width="4.212" stroke-linecap="round" stroke-linejoin="round"/>
<path d="M320.469 639.434L314.945 623.192" stroke="#171717" stroke-width="4.212" stroke-linecap="round" stroke-linejoin="round"/>
<path d="M411.381 632.788L423.243 625.309" stroke="#171717" stroke-width="4.212" stroke-linecap="round" stroke-linejoin="round"/>
<path d="M461.319 697.518L454.719 684.84" stroke="#171717" stroke-width="4.212" stroke-linecap="round" stroke-linejoin="round"/>
<path d="M499.824 588.9L512.474 582.987" stroke="#171717" stroke-width="4.212" stroke-linecap="round" stroke-linejoin="round"/>
<path d="M550.433 557.084L542.258 541.476" stroke="#171717" stroke-width="4.212" stroke-linecap="round" stroke-linejoin="round"/>
<path d="M562.227 476.625L574.887 469.983" stroke="#171717" stroke-width="4.212" stroke-linecap="round" stroke-linejoin="round"/>
<path d="M613.608 447.084L608.408 432.963" stroke="#171717" stroke-width="4.212" stroke-linecap="round" stroke-linejoin="round"/>
<path d="M492.365 269.316L502.803 261.929" stroke="#171717" stroke-width="4.212" stroke-linecap="round" stroke-linejoin="round"/>
<path d="M389.918 73.2999L406.308 67.4619" stroke="#171717" stroke-width="4.231" stroke-linecap="round" stroke-linejoin="round"/>
<path d="M688.611 366.222L714.75 312.959" stroke="url(#paint3_linear_283_1349)" stroke-width="4.212" stroke-linecap="round" stroke-linejoin="round"/>
<path d="M654.078 446.694C664.03 426.513 673.328 406.026 681.971 385.234" stroke="url(#paint4_linear_283_1349)" stroke-width="4.212" stroke-linecap="round" stroke-linejoin="round"/>
<path d="M183.926 597.505L201.347 590.005" stroke="#171717" stroke-width="4.212" stroke-linecap="round" stroke-linejoin="round"/>
<path d="M241.67 645.576C238.509 640.655 235.046 635.934 231.301 631.441" stroke="#171717" stroke-width="4.212" stroke-linecap="round" stroke-linejoin="round"/>
<path d="M120.378 434.89L117.391 415.964" stroke="#171717" stroke-width="4.93" stroke-linecap="round" stroke-linejoin="round"/>
<path d="M109.588 427.51L130.422 419.079" stroke="#171717" stroke-width="4.93" stroke-linecap="round" stroke-linejoin="round"/>
<path d="M745.091 444.2L751.885 449.954C752.09 450.128 752.237 450.36 752.306 450.62C752.375 450.88 752.363 451.154 752.271 451.407C752.179 451.659 752.012 451.877 751.792 452.032C751.573 452.187 751.311 452.27 751.042 452.271L742.142 452.317C741.882 452.319 741.629 452.397 741.413 452.543C741.198 452.688 741.03 452.894 740.932 453.134L737.56 461.373C737.458 461.622 737.282 461.833 737.057 461.979C736.831 462.125 736.566 462.198 736.298 462.189C736.029 462.18 735.77 462.088 735.555 461.927C735.34 461.766 735.179 461.543 735.095 461.288L732.3 452.835C732.219 452.588 732.066 452.371 731.862 452.211C731.657 452.051 731.409 451.955 731.15 451.935L722.272 451.274C722.004 451.254 721.748 451.153 721.54 450.983C721.331 450.814 721.18 450.584 721.106 450.326C721.032 450.068 721.038 449.793 721.125 449.539C721.212 449.284 721.374 449.063 721.591 448.903L728.767 443.633C728.976 443.48 729.136 443.268 729.225 443.024C729.314 442.78 729.328 442.515 729.267 442.262L727.152 433.613C727.088 433.352 727.106 433.078 727.203 432.828C727.3 432.577 727.472 432.362 727.694 432.212C727.917 432.062 728.181 431.983 728.449 431.987C728.718 431.991 728.979 432.078 729.197 432.234L736.426 437.434C736.637 437.586 736.888 437.672 737.148 437.681C737.408 437.69 737.664 437.621 737.885 437.484L745.456 432.801C745.685 432.66 745.951 432.592 746.219 432.607C746.487 432.622 746.745 432.718 746.956 432.884C747.168 433.049 747.324 433.275 747.403 433.532C747.483 433.789 747.482 434.063 747.4 434.319L744.692 442.8C744.613 443.047 744.609 443.312 744.68 443.561C744.751 443.81 744.894 444.032 745.091 444.2Z" fill="#171717"/>
<path d="M674.64 149.38L668.25 162.472C668.057 162.867 667.748 163.194 667.364 163.408C666.981 163.622 666.54 163.713 666.103 163.67C665.666 163.626 665.252 163.45 664.918 163.164C664.584 162.878 664.345 162.497 664.234 162.072L660.578 147.972C660.472 147.561 660.246 147.19 659.928 146.907C659.611 146.624 659.217 146.441 658.796 146.382L644.37 144.349C643.935 144.288 643.529 144.095 643.207 143.795C642.885 143.496 642.662 143.106 642.569 142.676C642.475 142.247 642.516 141.799 642.685 141.393C642.853 140.987 643.143 140.643 643.513 140.406L655.795 132.571C656.154 132.343 656.436 132.013 656.608 131.624C656.779 131.234 656.831 130.803 656.757 130.384L654.232 116.037C654.155 115.604 654.212 115.157 654.397 114.758C654.582 114.358 654.884 114.025 655.265 113.803C655.645 113.581 656.084 113.48 656.522 113.516C656.961 113.551 657.379 113.72 657.718 114L668.965 123.26C669.293 123.53 669.694 123.697 670.117 123.74C670.54 123.782 670.966 123.699 671.341 123.499L684.206 116.664C684.594 116.457 685.037 116.375 685.474 116.427C685.91 116.48 686.32 116.665 686.649 116.958C686.977 117.251 687.208 117.637 687.309 118.065C687.411 118.493 687.379 118.942 687.218 119.351L681.887 132.908C681.732 133.304 681.697 133.737 681.787 134.152C681.877 134.567 682.088 134.947 682.394 135.242L692.87 145.366C693.186 145.672 693.401 146.067 693.486 146.498C693.571 146.93 693.522 147.377 693.344 147.779C693.167 148.182 692.871 148.52 692.496 148.749C692.121 148.978 691.684 149.087 691.245 149.06L676.704 148.179C676.28 148.153 675.858 148.254 675.49 148.467C675.123 148.681 674.827 148.999 674.64 149.38V149.38Z" fill="#171717"/>
<path d="M152.532 327.117L155.432 336.092C155.52 336.363 155.522 336.654 155.439 336.926C155.356 337.199 155.191 337.439 154.967 337.615C154.743 337.791 154.471 337.894 154.187 337.911C153.902 337.927 153.62 337.856 153.377 337.707L145.341 332.77C145.106 332.626 144.835 332.555 144.56 332.565C144.285 332.576 144.019 332.667 143.796 332.829L136.154 338.357C135.923 338.524 135.647 338.616 135.362 338.622C135.078 338.627 134.798 338.545 134.562 338.386C134.325 338.227 134.143 338 134.04 337.735C133.936 337.469 133.917 337.178 133.984 336.902L136.196 327.734C136.26 327.466 136.243 327.186 136.148 326.927C136.053 326.669 135.885 326.445 135.663 326.282L128.043 320.723C127.813 320.555 127.64 320.321 127.547 320.052C127.454 319.783 127.446 319.491 127.524 319.218C127.601 318.944 127.761 318.7 127.981 318.52C128.202 318.34 128.472 318.231 128.756 318.21L138.156 317.48C138.43 317.458 138.692 317.356 138.909 317.186C139.125 317.016 139.286 316.785 139.372 316.524L142.304 307.56C142.393 307.289 142.562 307.052 142.789 306.881C143.016 306.709 143.29 306.612 143.575 306.601C143.859 306.59 144.14 306.666 144.38 306.82C144.619 306.973 144.806 307.197 144.915 307.46L148.515 316.177C148.62 316.431 148.798 316.648 149.027 316.802C149.255 316.955 149.524 317.037 149.799 317.038L159.231 317.057C159.516 317.057 159.793 317.145 160.027 317.308C160.26 317.471 160.437 317.702 160.536 317.969C160.634 318.236 160.647 318.527 160.575 318.802C160.503 319.078 160.348 319.324 160.131 319.509L152.953 325.627C152.743 325.805 152.591 326.042 152.516 326.308C152.442 326.573 152.447 326.854 152.532 327.117V327.117Z" fill="#171717"/>
</g>
<defs>
<linearGradient id="paint0_linear_283_1349" x1="526.645" y1="166.195" x2="526.645" y2="259.822" gradientUnits="userSpaceOnUse">
<stop stop-color="#28ED9B"/>
<stop offset="1" stop-color="#00AE84"/>
<stop offset="1" stop-color="#0A7D60"/>
</linearGradient>
<linearGradient id="paint1_linear_283_1349" x1="281.35" y1="651.868" x2="281.35" y2="841.344" gradientUnits="userSpaceOnUse">
<stop stop-color="#28ED9B"/>
<stop offset="1" stop-color="#00AE84"/>
<stop offset="1" stop-color="#0A7D60"/>
</linearGradient>
<linearGradient id="paint2_linear_283_1349" x1="272.303" y1="711.894" x2="272.303" y2="780.26" gradientUnits="userSpaceOnUse">
<stop stop-color="#28ED9B"/>
<stop offset="1" stop-color="#00AE84"/>
<stop offset="1" stop-color="#0A7D60"/>
</linearGradient>
<linearGradient id="paint3_linear_283_1349" x1="701.508" y1="313.168" x2="701.508" y2="365.931" gradientUnits="userSpaceOnUse">
<stop stop-color="#28ED9B"/>
<stop offset="1" stop-color="#00AE84"/>
<stop offset="1" stop-color="#0A7D60"/>
</linearGradient>
<linearGradient id="paint4_linear_283_1349" x1="667.84" y1="385.476" x2="667.84" y2="446.359" gradientUnits="userSpaceOnUse">
<stop stop-color="#28ED9B"/>
<stop offset="1" stop-color="#00AE84"/>
<stop offset="1" stop-color="#0A7D60"/>
</linearGradient>
<clipPath id="clip0_283_1349">
<rect width="885" height="844" fill="white" transform="translate(38 58)"/>
</clipPath>
</defs>
</svg>
