<svg width="200" height="200" viewBox="0 0 400 200" fill="none" xmlns="http://www.w3.org/2000/svg">
  <!-- Left Part -->
  <path d="M132.9 39.8C107.7 54 82.5 68.2 57.3 82.4c-3.6 2-7.2 4.1-10.8 6.1c-10.9 6.2-15.6 22.1-8.6 32.8c7.1 11.1 21.1 15.2 32.8 8.6c25.2-14.2 50.4-28.4 75.7-42.6c3.6-2 7.2-4.1 10.8-6.1c10.9-6.2 15.6-22.1 8.6-32.8C158.6 37.3 144.7 33.2 132.9 39.8z" fill="#EA4335"/>
  <path d="M156.2 137.2c-25.2-14.2-50.4-28.4-75.7-42.6c-3.6-2-7.2-4.1-10.8-6.1c-10.9-6.2-26.7-3-32.8 8.6c-6 11.3-3.1 26.3 8.6 32.8c25.2 14.2 50.4 28.4 75.7 42.6c3.6 2 7.2 4.1 10.8 6.1c10.9 6.2 26.7 3 32.8-8.6C170.8 158.7 167.8 143.8 156.2 137.2z" fill="#4285F4"/>
  
  <!-- Right Part -->
  <path d="M240.9 178.4c25.2-14.2 50.4-28.4 75.7-42.6c3.6-2 7.2-4.1 10.8-6.1c10.9-6.2 15.6-22.1 8.6-32.8c-7.1-11.1-21.1-15.2-32.8-8.6c-25.2 14.2-50.4 28.4-75.7 42.6c-3.6 2-7.2 4.1-10.8 6.1c-10.9 6.2-15.6 22.1-8.6 32.8C215.2 180.9 229.2 185 240.9 178.4z" fill="#FBBC04"/>
  <path d="M217.1 81.5c25.2 14.2 50.4 28.4 75.7 42.6c3.6 2 7.2 4.1 10.8 6.1c10.9 6.2 26.7 3 32.8-8.6c6-11.3 3.1-26.3-8.6-32.8c-25.2-14.2-50.4-28.4-75.7-42.6c-3.6-2-7.2-4.1-10.8-6.1c-10.9-6.2-26.7-3-32.8 8.6C202.5 60 205.5 74.9 217.1 81.5z" fill="#0F9D58"/>
</svg> 